<svg width="25" height="24" viewBox="0 0 25 24" fill="none" xmlns="http://www.w3.org/2000/svg">
<path d="M13.3936 11.3438L14.8311 12.7812C14.8936 12.8438 14.8936 12.9688 14.8311 13.0312L11.2686 16.5938L9.76855 16.75C9.5498 16.7812 9.39355 16.625 9.4248 16.4062L9.58105 14.9062L13.1436 11.3438C13.2061 11.2812 13.3311 11.2812 13.3936 11.3438ZM15.9873 11C16.2373 11.25 16.2373 11.625 15.9873 11.875L15.3623 12.5C15.2998 12.5625 15.2061 12.5625 15.1436 12.5L13.6748 11.0312C13.6123 10.9688 13.6123 10.875 13.6748 10.8125L14.2998 10.1875C14.5498 9.9375 14.9248 9.9375 15.1748 10.1875L15.9873 11ZM19.7998 7.5V18.5C19.7998 19.3438 19.1123 20 18.2998 20H7.2998C6.45605 20 5.7998 19.3438 5.7998 18.5V7.5C5.7998 6.6875 6.45605 6 7.2998 6H8.7998V4.375C8.7998 4.1875 8.95605 4 9.1748 4H10.4248C10.6123 4 10.7998 4.1875 10.7998 4.375V6H14.7998V4.375C14.7998 4.1875 14.9561 4 15.1748 4H16.4248C16.6123 4 16.7998 4.1875 16.7998 4.375V6H18.2998C19.1123 6 19.7998 6.6875 19.7998 7.5ZM18.2998 18.3125V9H7.2998V18.3125C7.2998 18.4375 7.3623 18.5 7.4873 18.5H18.1123C18.2061 18.5 18.2998 18.4375 18.2998 18.3125Z" fill="#10487A"/>
</svg>
