<svg width="24" height="24" viewBox="0 0 24 24" fill="none" xmlns="http://www.w3.org/2000/svg">
<rect width="24" height="24" fill="#10487A"/>
<path d="M19.5 5C20.3125 5 21 5.6875 21 6.5V17.5C21 18.3438 20.3125 19 19.5 19H4.5C3.65625 19 3 18.3438 3 17.5V6.5C3 5.6875 3.65625 5 4.5 5H19.5ZM19.5 17.5V8.5H4.5V17.5H5.5C5.46875 17.375 5.5 17.625 5.5 16.8125C5.5 15.8125 6.4375 15 7.59375 15C7.9375 15 8.15625 15.25 9 15.25C9.8125 15.25 10.0625 15 10.375 15C11.5312 15 12.5 15.8125 12.5 16.8125C12.5 17.625 12.5 17.375 12.4688 17.5H19.5ZM14.25 15C14.0938 15 14 14.9062 14 14.75V14.25C14 14.125 14.0938 14 14.25 14H17.75C17.875 14 18 14.125 18 14.25V14.75C18 14.9062 17.875 15 17.75 15H14.25ZM14.25 13C14.0938 13 14 12.9062 14 12.75V12.25C14 12.125 14.0938 12 14.25 12H17.75C17.875 12 18 12.125 18 12.25V12.75C18 12.9062 17.875 13 17.75 13H14.25ZM14.25 11C14.0938 11 14 10.9062 14 10.75V10.25C14 10.125 14.0938 10 14.25 10H17.75C17.875 10 18 10.125 18 10.25V10.75C18 10.9062 17.875 11 17.75 11H14.25ZM9 14C7.875 14 7 13.125 7 12C7 10.9062 7.875 10 9 10C10.0938 10 11 10.9062 11 12C11 13.125 10.0938 14 9 14Z" fill="white"/>
</svg>
