<svg width="25" height="24" viewBox="0 0 25 24" fill="none" xmlns="http://www.w3.org/2000/svg">
<path d="M18.1313 7.0625C18.4126 7.34375 18.6001 7.75 18.6001 8.125V18.5312C18.6001 19.3438 17.9126 20 17.0688 20H8.06885C7.25635 20 6.6001 19.3438 6.6001 18.5312V5.53125C6.6001 4.6875 7.25635 4.03125 8.06885 4H14.4751C14.8501 4 15.2251 4.1875 15.5063 4.46875L18.1313 7.0625ZM14.5688 5.625V8.03125H16.9751L14.5688 5.625ZM17.1001 18.5312V9.53125H13.8188C13.4126 9.53125 13.0688 9.1875 13.0688 8.78125V5.53125H8.06885V18.5312H17.1001ZM13.1001 10.75V11.5312C13.4438 11.5312 13.7876 11.6562 14.0688 11.875C14.1938 11.9688 14.1938 12.1562 14.0688 12.25L13.7251 12.5938C13.6313 12.6875 13.5063 12.6875 13.4126 12.625C13.2876 12.5625 13.1313 12.5 13.0063 12.5H12.1313C11.9126 12.5 11.7563 12.6875 11.7563 12.9375C11.7563 13.125 11.8501 13.2812 12.0376 13.3125L13.4438 13.75C14.0063 13.9062 14.4126 14.4688 14.4126 15.0938C14.4126 15.875 13.8188 16.5 13.1001 16.5V17.25C13.1001 17.4062 12.9751 17.5 12.8501 17.5H12.3501C12.1938 17.5 12.1001 17.4062 12.1001 17.25V16.5C11.7251 16.5 11.3813 16.375 11.1001 16.1562C10.9751 16.0625 10.9751 15.875 11.1001 15.7812L11.4438 15.4375C11.5376 15.3438 11.6626 15.3438 11.7563 15.4062C11.8813 15.4688 12.0376 15.5 12.1626 15.5H13.0376C13.2563 15.5 13.4126 15.3438 13.4126 15.0938C13.4126 14.9062 13.3188 14.75 13.1313 14.7188L11.7251 14.2812C11.1626 14.0938 10.7563 13.5625 10.7563 12.9375C10.7563 12.1562 11.3501 11.5312 12.1001 11.5312V10.75C12.1001 10.625 12.1938 10.5 12.3501 10.5H12.8501C12.9751 10.5 13.1001 10.625 13.1001 10.75ZM9.3501 7.5C9.19385 7.5 9.1001 7.40625 9.1001 7.25V6.75C9.1001 6.625 9.19385 6.5 9.3501 6.5H11.8501C11.9751 6.5 12.1001 6.625 12.1001 6.75V7.25C12.1001 7.40625 11.9751 7.5 11.8501 7.5H9.3501ZM12.1001 9.25C12.1001 9.40625 11.9751 9.5 11.8501 9.5H9.3501C9.19385 9.5 9.1001 9.40625 9.1001 9.25V8.75C9.1001 8.625 9.19385 8.5 9.3501 8.5H11.8501C11.9751 8.5 12.1001 8.625 12.1001 8.75V9.25Z" fill="#10487A"/>
</svg>
