<svg width="25" height="24" viewBox="0 0 25 24" fill="none" xmlns="http://www.w3.org/2000/svg">
<path d="M19.6187 4.75C19.9312 4.65625 20.1187 5.0625 19.8374 5.21875C16.7749 7.28125 16.0874 9.21875 15.8999 10.25C14.8687 16.125 12.7437 13.9688 10.1499 17.3125C10.9624 17.7812 11.8999 18.0625 12.8999 18.0625C15.9312 18.0625 18.4312 15.5625 18.4312 12.5C18.4312 11.0938 17.8999 9.8125 17.0249 8.84375C17.1499 8.53125 17.3374 8.25 17.5562 8C18.6812 9.15625 19.3999 10.75 19.3999 12.5C19.3999 16.0938 16.4624 19 12.8999 19C9.30615 19 6.3999 16.0938 6.3999 12.5C6.3999 8.9375 9.30615 6 12.8999 6C14.0249 6.03125 15.1187 6.3125 16.0562 6.84375C17.4937 5.625 18.8062 4.9375 19.6187 4.75ZM9.30615 16.7188C11.3062 12.3125 13.2124 9.46875 15.2749 7.53125C14.5562 7.1875 13.7437 6.96875 12.8999 6.96875C9.8374 6.96875 7.3374 9.46875 7.3374 12.5C7.3374 14.1875 8.0874 15.7188 9.30615 16.7188Z" fill="white"/>
</svg>
