<svg width="25" height="24" viewBox="0 0 25 24" fill="none" xmlns="http://www.w3.org/2000/svg">
<path d="M19.7188 4.75C20.0312 4.65625 20.2188 5.0625 19.9375 5.21875C16.875 7.28125 16.1875 9.21875 16 10.25C14.9688 16.125 12.8438 13.9688 10.25 17.3125C11.0625 17.7812 12 18.0625 13 18.0625C16.0312 18.0625 18.5312 15.5625 18.5312 12.5C18.5312 11.0938 18 9.8125 17.125 8.84375C17.25 8.53125 17.4375 8.25 17.6562 8C18.7812 9.15625 19.5 10.75 19.5 12.5C19.5 16.0938 16.5625 19 13 19C9.40625 19 6.5 16.0938 6.5 12.5C6.5 8.9375 9.40625 6 13 6C14.125 6.03125 15.2188 6.3125 16.1562 6.84375C17.5938 5.625 18.9062 4.9375 19.7188 4.75ZM9.40625 16.7188C11.4062 12.3125 13.3125 9.46875 15.375 7.53125C14.6562 7.1875 13.8438 6.96875 13 6.96875C9.9375 6.96875 7.4375 9.46875 7.4375 12.5C7.4375 14.1875 8.1875 15.7188 9.40625 16.7188Z" fill="#10487A"/>
</svg>
