<svg width="24" height="24" viewBox="0 0 24 24" fill="none" xmlns="http://www.w3.org/2000/svg">
<path d="M17.5312 7.0625C17.8125 7.34375 18 7.75 18 8.125V18.5312C18 19.3438 17.3125 20 16.4688 20H7.46875C6.65625 20 6 19.3438 6 18.5312V5.53125C6 4.6875 6.65625 4.03125 7.46875 4H13.875C14.25 4 14.625 4.1875 14.9062 4.46875L17.5312 7.0625ZM13.9688 5.625V8.03125H16.375L13.9688 5.625ZM16.5 18.5312V9.53125H13.2188C12.8125 9.53125 12.4688 9.1875 12.4688 8.78125V5.53125H7.46875V18.5312H16.5ZM11.6875 11.125C11.8438 10.9688 12.125 10.9688 12.2812 11.125L14.5312 13.375C14.75 13.625 14.5938 14.0312 14.25 14.0312H12.75V16.6562C12.75 16.8438 12.5625 17.0312 12.375 17.0312H11.625C11.4062 17.0312 11.25 16.8438 11.25 16.6562V14.0312H9.71875C9.375 14.0312 9.21875 13.625 9.4375 13.375L11.6875 11.125Z" fill="#10487A"/>
</svg>
