<svg width="24" height="24" viewBox="0 0 24 24" fill="none" xmlns="http://www.w3.org/2000/svg">
<path d="M19 11C17.5938 11 16.5 9.90625 16.5 8.5C16.5 7.125 17.5938 6 19 6C20.375 6 21.5 7.125 21.5 8.5C21.5 9.90625 20.375 11 19 11ZM19 7.5C18.4375 7.5 18 7.96875 18 8.5C18 9.0625 18.4375 9.5 19 9.5C19.5312 9.5 20 9.0625 20 8.5C20 7.96875 19.5312 7.5 19 7.5ZM5 11C3.59375 11 2.5 9.90625 2.5 8.5C2.5 7.125 3.59375 6 5 6C6.375 6 7.5 7.125 7.5 8.5C7.5 9.90625 6.375 11 5 11ZM5 7.5C4.4375 7.5 4 7.96875 4 8.5C4 9.0625 4.4375 9.5 5 9.5C5.53125 9.5 6 9.0625 6 8.5C6 7.96875 5.53125 7.5 5 7.5ZM17.375 14.0938C17.75 14.6875 18 15.375 17.9688 16.125V17.5C17.9688 18.3438 17.3125 19 16.4688 19H7.46875C6.65625 19 5.96875 18.3438 5.96875 17.5V16.125C5.96875 15.375 6.21875 14.6875 6.59375 14.0938C7.4375 12.8125 9.125 12.3438 10.5938 12.8125C11.0312 12.9375 11.5 13 11.9688 13C12.4688 13 12.9375 12.9375 13.375 12.8125C14.8438 12.3438 16.5 12.8438 17.375 14.0938ZM16.5 17.5V16.125C16.5 14.9688 15.5625 14.0312 14.4375 14C13.6562 14.3438 12.8125 14.5 12 14.5C11.1562 14.5 10.3125 14.3438 9.53125 14C8.40625 14.0312 7.5 14.9688 7.5 16.125V17.5H16.5ZM19.375 12C20.8125 12 22 13.1875 21.9688 14.625C21.9688 15.0625 21.6562 15.375 21.2188 15.375C20.8125 15.375 20.4688 15.0625 20.4688 14.625C20.4688 14.0312 19.9688 13.5 19.3438 13.5H18.5938C18.4688 13.5 18.3438 13.5625 18.2188 13.5938C17.9375 13.1562 17.5625 12.7812 17.1562 12.4688C17.5625 12.1875 18.0625 12 18.625 12H19.375ZM12 12C10.0625 12 8.5 10.4375 8.5 8.5C8.5 6.59375 10.0625 5 12 5C13.9062 5 15.5 6.59375 15.5 8.5C15.5 10.4375 13.9062 12 12 12ZM12 6.5C10.875 6.5 10 7.40625 10 8.5C10 9.625 10.875 10.5 12 10.5C13.0938 10.5 14 9.625 14 8.5C14 7.40625 13.0938 6.5 12 6.5ZM6.8125 12.4688C6.40625 12.7812 6.03125 13.1562 5.75 13.5938C5.625 13.5625 5.5 13.5 5.375 13.5H4.625C4 13.5 3.5 14.0312 3.5 14.625C3.5 15.0625 3.15625 15.375 2.75 15.375C2.3125 15.375 2 15.0625 2 14.625C2 13.1875 3.15625 12 4.625 12H5.375C5.90625 12 6.40625 12.1875 6.8125 12.4688Z" fill="white"/>
</svg>
