<svg width="24" height="24" viewBox="0 0 24 24" fill="none" xmlns="http://www.w3.org/2000/svg">
<path d="M5.5 15.5C4.65625 15.5 4 16.1875 4 17C4 17.8438 4.65625 18.5 5.5 18.5C6.3125 18.5 7 17.8438 7 17C7 16.1875 6.3125 15.5 5.5 15.5ZM5.5 10.5C4.65625 10.5 4 11.1875 4 12C4 12.8438 4.65625 13.5 5.5 13.5C6.3125 13.5 7 12.8438 7 12C7 11.1875 6.3125 10.5 5.5 10.5ZM5.5 5.5C4.65625 5.5 4 6.1875 4 7C4 7.84375 4.65625 8.5 5.5 8.5C6.3125 8.5 7 7.84375 7 7C7 6.1875 6.3125 5.5 5.5 5.5ZM19.5 6.25H9.5C9.21875 6.25 9 6.5 9 6.75V7.25C9 7.53125 9.21875 7.75 9.5 7.75H19.5C19.75 7.75 20 7.53125 20 7.25V6.75C20 6.5 19.75 6.25 19.5 6.25ZM19.5 11.25H9.5C9.21875 11.25 9 11.5 9 11.75V12.25C9 12.5312 9.21875 12.75 9.5 12.75H19.5C19.75 12.75 20 12.5312 20 12.25V11.75C20 11.5 19.75 11.25 19.5 11.25ZM19.5 16.25H9.5C9.21875 16.25 9 16.5 9 16.75V17.25C9 17.5312 9.21875 17.75 9.5 17.75H19.5C19.75 17.75 20 17.5312 20 17.25V16.75C20 16.5 19.75 16.25 19.5 16.25Z" fill="white"/>
</svg>
