<svg width="10" height="12" viewBox="0 0 10 12" fill="none" xmlns="http://www.w3.org/2000/svg">
<path d="M3.36719 7.0625H2.50781C2.35742 7.0625 2.25 6.95508 2.25 6.80469V5.94531C2.25 5.81641 2.35742 5.6875 2.50781 5.6875H3.36719C3.49609 5.6875 3.625 5.81641 3.625 5.94531V6.80469C3.625 6.95508 3.49609 7.0625 3.36719 7.0625ZM5.6875 6.80469C5.6875 6.95508 5.55859 7.0625 5.42969 7.0625H4.57031C4.41992 7.0625 4.3125 6.95508 4.3125 6.80469V5.94531C4.3125 5.81641 4.41992 5.6875 4.57031 5.6875H5.42969C5.55859 5.6875 5.6875 5.81641 5.6875 5.94531V6.80469ZM7.75 6.80469C7.75 6.95508 7.62109 7.0625 7.49219 7.0625H6.63281C6.48242 7.0625 6.375 6.95508 6.375 6.80469V5.94531C6.375 5.81641 6.48242 5.6875 6.63281 5.6875H7.49219C7.62109 5.6875 7.75 5.81641 7.75 5.94531V6.80469ZM5.6875 8.86719C5.6875 9.01758 5.55859 9.125 5.42969 9.125H4.57031C4.41992 9.125 4.3125 9.01758 4.3125 8.86719V8.00781C4.3125 7.87891 4.41992 7.75 4.57031 7.75H5.42969C5.55859 7.75 5.6875 7.87891 5.6875 8.00781V8.86719ZM3.625 8.86719C3.625 9.01758 3.49609 9.125 3.36719 9.125H2.50781C2.35742 9.125 2.25 9.01758 2.25 8.86719V8.00781C2.25 7.87891 2.35742 7.75 2.50781 7.75H3.36719C3.49609 7.75 3.625 7.87891 3.625 8.00781V8.86719ZM7.75 8.86719C7.75 9.01758 7.62109 9.125 7.49219 9.125H6.63281C6.48242 9.125 6.375 9.01758 6.375 8.86719V8.00781C6.375 7.87891 6.48242 7.75 6.63281 7.75H7.49219C7.62109 7.75 7.75 7.87891 7.75 8.00781V8.86719ZM9.8125 3.28125V10.8438C9.8125 11.4238 9.33984 11.875 8.78125 11.875H1.21875C0.638672 11.875 0.1875 11.4238 0.1875 10.8438V3.28125C0.1875 2.72266 0.638672 2.25 1.21875 2.25H2.25V1.13281C2.25 1.00391 2.35742 0.875 2.50781 0.875H3.36719C3.49609 0.875 3.625 1.00391 3.625 1.13281V2.25H6.375V1.13281C6.375 1.00391 6.48242 0.875 6.63281 0.875H7.49219C7.62109 0.875 7.75 1.00391 7.75 1.13281V2.25H8.78125C9.33984 2.25 9.8125 2.72266 9.8125 3.28125ZM8.78125 10.7148V4.3125H1.21875V10.7148C1.21875 10.8008 1.26172 10.8438 1.34766 10.8438H8.65234C8.7168 10.8438 8.78125 10.8008 8.78125 10.7148Z" fill="#666666"/>
</svg>
