<svg width="24" height="24" viewBox="0 0 24 24" fill="none" xmlns="http://www.w3.org/2000/svg">
<path d="M12.5938 11.3438C12.5312 11.2812 12.4062 11.2812 12.3438 11.3438L8.78125 14.9062L8.625 16.4062C8.59375 16.625 8.75 16.7812 8.96875 16.75L10.4688 16.5938L14.0312 13.0312C14.0938 12.9688 14.0938 12.8438 14.0312 12.7812L12.5938 11.3438ZM15.1875 11L14.375 10.1875C14.125 9.9375 13.75 9.9375 13.5 10.1875L12.875 10.8125C12.8125 10.875 12.8125 10.9688 12.875 11.0312L14.3438 12.5C14.4062 12.5625 14.5 12.5625 14.5625 12.5L15.1875 11.875C15.4375 11.625 15.4375 11.25 15.1875 11ZM19 7.5C19 6.6875 18.3125 6 17.5 6H16V4.375C16 4.1875 15.8125 4 15.625 4H14.375C14.1562 4 14 4.1875 14 4.375V6H10V4.375C10 4.1875 9.8125 4 9.625 4H8.375C8.15625 4 8 4.1875 8 4.375V6H6.5C5.65625 6 5 6.6875 5 7.5V18.5C5 19.3438 5.65625 20 6.5 20H17.5C18.3125 20 19 19.3438 19 18.5V7.5ZM17.5 18.3125C17.5 18.4375 17.4062 18.5 17.3125 18.5H6.6875C6.5625 18.5 6.5 18.4375 6.5 18.3125V9H17.5V18.3125Z" fill="#999999"/>
</svg>
