<svg width="24" height="24" viewBox="0 0 24 24" fill="none" xmlns="http://www.w3.org/2000/svg">
<path d="M19 6C20.0938 6 21 6.90625 21 8V18C21 19.125 20.0938 20 19 20H5C3.875 20 3 19.125 3 18V8C3 6.90625 3.875 6 5 6H9.5V5C9.5 4.46875 9.9375 4 10.5 4H13.5C14.0312 4 14.5 4.46875 14.5 5V6H19ZM11 5.5V7.5H13V5.5H11ZM19.5 18V8C19.5 7.75 19.25 7.5 19 7.5H14.5V9H9.5V7.5H5C4.71875 7.5 4.5 7.75 4.5 8V18C4.5 18.2812 4.71875 18.5 5 18.5H8.5C8.5 18.4688 8.5 18.4375 8.5 18.4062V17.8125C8.5 16.8125 9.4375 16 10.5938 16C10.9375 16 11.1562 16.25 12 16.25C12.8125 16.25 13.0625 16 13.375 16C14.5312 16 15.5 16.8125 15.5 17.8125V18.4062C15.5 18.4375 15.4688 18.4688 15.4688 18.5H19C19.25 18.5 19.5 18.2812 19.5 18ZM12 11C13.0938 11 14 11.9062 14 13C14 14.125 13.0938 15 12 15C10.875 15 10 14.125 10 13C10 11.9062 10.875 11 12 11Z" fill="white"/>
</svg>
