<svg width="24" height="24" viewBox="0 0 24 24" fill="none" xmlns="http://www.w3.org/2000/svg">
<path d="M19.75 12C19.7188 7.71875 16.25 4.25 12 4.25C9.84375 4.25 7.875 5.15625 6.46875 6.5625L5.0625 5.15625C4.84375 4.9375 4.4375 5.09375 4.4375 5.4375V9.375C4.4375 9.59375 4.59375 9.75 4.8125 9.75H8.8125C9.15625 9.75 9.3125 9.34375 9.09375 9.125L7.5625 7.625C8.6875 6.46875 10.25 5.75 12 5.75C15.4375 5.75 18.25 8.5625 18.25 12C18.25 15.4688 15.4375 18.25 12 18.25C10.375 18.25 8.9375 17.6562 7.8125 16.6875C7.6875 16.5625 7.4375 16.5625 7.3125 16.6875L6.78125 17.2188C6.625 17.375 6.625 17.625 6.78125 17.7812C8.15625 19 10 19.7812 12 19.75C16.25 19.75 19.75 16.2812 19.75 12ZM14.5 14.8125L14.9688 14.2188C15.0625 14.0312 15.0312 13.8125 14.875 13.6875L12.75 12.125V7.625C12.75 7.4375 12.5625 7.25 12.375 7.25H11.625C11.4062 7.25 11.25 7.4375 11.25 7.625V12.9062L14 14.9062C14.1562 15.0312 14.4062 15 14.5 14.8125Z" fill="#333333"/>
</svg>
