<svg width="24" height="24" viewBox="0 0 24 24" fill="none" xmlns="http://www.w3.org/2000/svg">
<path d="M20.5 5C20.4375 5 20.375 5.03125 20.3125 5.0625L15 7L9.625 5.125C9.40625 5.0625 9.1875 5.03125 8.96875 5C8.78125 5 8.5625 5.0625 8.34375 5.125L3.625 6.75C3.25 6.90625 3 7.28125 3 7.6875V18.5C3 18.8125 3.21875 19 3.46875 19C3.53125 19 3.59375 19 3.65625 18.9688L9 17L14.375 18.9062C14.5625 18.9688 14.7812 19 15 19C15.2188 19 15.4062 18.9688 15.625 18.9062L20.3438 17.2812C20.7188 17.125 21 16.75 21 16.3438V5.53125C21 5.21875 20.75 5 20.5 5ZM10 6.84375L14 8.25V17.1875L10 15.7812V6.84375ZM4.5 17.0938V8.0625L8.5 6.65625V15.5938H8.46875L4.5 17.0938ZM19.5 15.9688L15.5 17.375V8.4375L19.5 6.9375V15.9688Z" fill="#333333"/>
</svg>
