<svg width="24" height="25" viewBox="0 0 24 25" fill="none" xmlns="http://www.w3.org/2000/svg">
<g clip-path="url(#clip0_2888_81)">
<path d="M22 19.0833H16V15.0833H13.32C12.18 17.5033 9.72 19.0833 7 19.0833C3.14 19.0833 0 15.9433 0 12.0833C0 8.22334 3.14 5.08334 7 5.08334C9.72 5.08334 12.17 6.66334 13.32 9.08334H24V15.0833H22V19.0833ZM18 17.0833H20V13.0833H22V11.0833H11.94L11.71 10.4133C11.01 8.42334 9.11 7.08334 7 7.08334C4.24 7.08334 2 9.32334 2 12.0833C2 14.8433 4.24 17.0833 7 17.0833C9.11 17.0833 11.01 15.7433 11.71 13.7533L11.94 13.0833H18V17.0833ZM7 15.0833C5.35 15.0833 4 13.7333 4 12.0833C4 10.4333 5.35 9.08334 7 9.08334C8.65 9.08334 10 10.4333 10 12.0833C10 13.7333 8.65 15.0833 7 15.0833ZM7 11.0833C6.45 11.0833 6 11.5333 6 12.0833C6 12.6333 6.45 13.0833 7 13.0833C7.55 13.0833 8 12.6333 8 12.0833C8 11.5333 7.55 11.0833 7 11.0833Z" fill="#666666"/>
</g>
<defs>
<clipPath id="clip0_2888_81">
<rect width="24" height="24" fill="white" transform="translate(0 0.0833435)"/>
</clipPath>
</defs>
</svg>
