<svg width="32" height="32" viewBox="0 0 32 32" fill="none" xmlns="http://www.w3.org/2000/svg">
<g id="bi:file-pdf-fill">
<g id="Group">
<path id="Vector" d="M11.0464 20.848C11.3264 20.6826 11.6324 20.524 11.9644 20.372C11.6836 20.7899 11.3833 21.1944 11.0644 21.584C10.5044 22.258 10.0684 22.616 9.79438 22.728L9.72439 22.752C9.70458 22.7242 9.68718 22.6947 9.67239 22.664C9.56039 22.444 9.56439 22.232 9.75239 21.944C9.96439 21.614 10.3904 21.236 11.0464 20.848ZM15.9564 17.554C15.7191 17.6033 15.4817 17.6553 15.2444 17.71C15.597 17.0193 15.9305 16.3191 16.2444 15.61C16.5604 16.1959 16.9007 16.7684 17.2644 17.326C16.8297 17.39 16.3937 17.466 15.9564 17.554ZM21.0064 19.432C20.6963 19.1807 20.4055 18.9066 20.1364 18.612C20.5951 18.6213 21.0031 18.6573 21.3604 18.72C21.9944 18.834 22.2924 19.014 22.3964 19.138C22.4284 19.1731 22.4468 19.2185 22.4484 19.266C22.4411 19.407 22.3999 19.5442 22.3284 19.666C22.2886 19.7637 22.2238 19.8493 22.1404 19.914C22.0996 19.9404 22.0505 19.9511 22.0024 19.944C21.8224 19.938 21.4864 19.812 21.0064 19.432ZM16.5564 9.93997C16.4764 10.428 16.3404 10.988 16.1564 11.598C16.0888 11.3695 16.0295 11.1387 15.9784 10.906C15.8264 10.2 15.8044 9.64597 15.8864 9.26197C15.9624 8.90797 16.1064 8.76597 16.2784 8.69597C16.3705 8.65483 16.4682 8.62786 16.5684 8.61597C16.5944 8.67597 16.6244 8.79997 16.6324 9.01197C16.6431 9.25597 16.6177 9.56597 16.5564 9.94197V9.93997Z" fill="#FF0000"/>
<path id="Vector_2" fill-rule="evenodd" clip-rule="evenodd" d="M8 0H24C25.0609 0 26.0783 0.421427 26.8284 1.17157C27.5786 1.92172 28 2.93913 28 4V28C28 29.0609 27.5786 30.0783 26.8284 30.8284C26.0783 31.5786 25.0609 32 24 32H8C6.93913 32 5.92172 31.5786 5.17157 30.8284C4.42143 30.0783 4 29.0609 4 28V4C4 2.93913 4.42143 1.92172 5.17157 1.17157C5.92172 0.421427 6.93913 0 8 0ZM8.33 23.336C8.51 23.696 8.79 24.022 9.206 24.174C9.62 24.324 10.03 24.254 10.366 24.114C11.002 23.854 11.636 23.242 12.218 22.542C12.884 21.74 13.584 20.688 14.26 19.522C15.5649 19.1347 16.9014 18.863 18.254 18.71C18.854 19.476 19.474 20.136 20.074 20.61C20.634 21.05 21.28 21.416 21.942 21.444C22.3025 21.4613 22.6594 21.3647 22.962 21.168C23.272 20.966 23.502 20.674 23.67 20.336C23.85 19.974 23.96 19.596 23.946 19.21C23.934 18.8293 23.7929 18.464 23.546 18.174C23.094 17.634 22.354 17.374 21.626 17.244C20.7428 17.1079 19.8469 17.0744 18.956 17.144C18.2041 16.0802 17.5482 14.9518 16.996 13.772C17.496 12.452 17.87 11.204 18.036 10.184C18.108 9.748 18.146 9.332 18.132 8.956C18.1294 8.58279 18.0426 8.21498 17.878 7.88C17.7831 7.69515 17.6483 7.53374 17.4833 7.40748C17.3183 7.28122 17.1272 7.19326 16.924 7.15C16.52 7.064 16.104 7.15 15.722 7.304C14.968 7.604 14.57 8.244 14.42 8.95C14.274 9.63 14.34 10.422 14.512 11.222C14.688 12.034 14.988 12.918 15.372 13.812C14.7563 15.339 14.047 16.8265 13.248 18.266C12.2175 18.5908 11.224 19.0232 10.284 19.556C9.544 19.996 8.886 20.516 8.49 21.13C8.07 21.782 7.94 22.558 8.33 23.336Z" fill="#FF0000"/>
</g>
</g>
</svg>
