<svg width="25" height="24" viewBox="0 0 25 24" fill="none" xmlns="http://www.w3.org/2000/svg">
<path d="M15.5883 13.5C17.9008 13.5 19.8071 15.4062 19.8071 17.7188V18.5C19.8071 19.3438 19.1196 20 18.3071 20H7.3071C6.46335 20 5.8071 19.3438 5.8071 18.5V17.7188C5.8071 15.4062 7.6821 13.5 9.9946 13.5C10.9008 13.5 11.3071 14 12.8071 14C14.2758 14 14.6821 13.5 15.5883 13.5ZM18.3071 18.5V17.7188C18.3071 16.2188 17.0883 15 15.5883 15C15.1196 15 14.4008 15.5 12.8071 15.5C11.1821 15.5 10.4633 15 9.9946 15C8.4946 15 7.3071 16.2188 7.3071 17.7188V18.5H18.3071ZM12.8071 13C10.3071 13 8.3071 11 8.3071 8.5C8.3071 6.03125 10.3071 4 12.8071 4C15.2758 4 17.3071 6.03125 17.3071 8.5C17.3071 11 15.2758 13 12.8071 13ZM12.8071 5.5C11.1508 5.5 9.8071 6.875 9.8071 8.5C9.8071 10.1562 11.1508 11.5 12.8071 11.5C14.4321 11.5 15.8071 10.1562 15.8071 8.5C15.8071 6.875 14.4321 5.5 12.8071 5.5Z" fill="white"/>
</svg>
