<!DOCTYPE svg PUBLIC "-//W3C//DTD SVG 1.1//EN" "http://www.w3.org/Graphics/SVG/1.1/DTD/svg11.dtd">
<!-- Uploaded to: SVG Repo, www.svgrepo.com, Transformed by: SVG Repo Mixer Tools -->
<svg width="140px" height="140px" viewBox="0 0 25 25" fill="none" xmlns="http://www.w3.org/2000/svg" stroke="#10487A">
<g id="SVGRepo_bgCarrier" stroke-width="0"/>
<g id="SVGRepo_tracerCarrier" stroke-linecap="round" stroke-linejoin="round" stroke="#CCCCCC#10487A" stroke-width="5"> <path d="M5.88468 17C7.32466 19.1128 9.75033 20.5 12.5 20.5C16.9183 20.5 20.5 16.9183 20.5 12.5C20.5 8.08172 16.9183 4.5 12.5 4.5C8.08172 4.5 4.5 8.08172 4.5 12.5V13.5M12.5 8V12.5L15.5 15.5" stroke="#10487A" stroke-width="1.7"/> <path d="M7 11L4.5 13.5L2 11" stroke="#10487A" stroke-width="1.7"/> </g>
<g id="SVGRepo_iconCarrier"> <path d="M5.88468 17C7.32466 19.1128 9.75033 20.5 12.5 20.5C16.9183 20.5 20.5 16.9183 20.5 12.5C20.5 8.08172 16.9183 4.5 12.5 4.5C8.08172 4.5 4.5 8.08172 4.5 12.5V13.5M12.5 8V12.5L15.5 15.5" stroke="#10487A" stroke-width="1.75"/> <path d="M7 11L4.5 13.5L2 11" stroke="#10487A" stroke-width="1.75"/> </g>
</svg>