<svg width="25" height="24" viewBox="0 0 25 24" fill="none" xmlns="http://www.w3.org/2000/svg">
<path d="M14.8071 5.5C12.3071 5.5 10.3071 7.53125 10.3071 10C10.3071 10.0312 10.3071 10.0312 10.3071 10.0312C10.3071 10.4688 10.3696 10.9062 10.4946 11.3125L6.3071 15.5V18.5H9.3071V17H10.8071V15.5H11.8071L13.1196 14.1875C13.6196 14.4062 14.2133 14.5 14.8071 14.5C17.2758 14.5 19.3071 12.5 19.3071 10C19.3071 7.53125 17.2758 5.5 14.8071 5.5ZM14.8071 4C18.1196 4 20.8071 6.6875 20.8071 10C20.8071 13.3438 18.1196 16 14.8071 16C14.3696 16 13.9633 15.9688 13.5571 15.875L12.3071 17.125V17.75C12.3071 18.1875 11.9633 18.5 11.5571 18.5H10.8071V19.25C10.8071 19.6875 10.4633 20 10.0571 20H5.5571C5.1196 20 4.8071 19.6875 4.8071 19.25V15.2188C4.8071 15 4.8696 14.8125 5.02585 14.6875L8.83835 10.8438C8.8071 10.5625 8.8071 10.2812 8.8071 10C8.8071 6.6875 11.4633 4 14.8071 4ZM14.8071 8.5C14.8071 7.6875 15.4633 7 16.3071 7C17.1196 7 17.8071 7.6875 17.8071 8.5C17.8071 9.34375 17.1196 10 16.3071 10C15.4633 10 14.8071 9.34375 14.8071 8.5Z" fill="#666666"/>
</svg>
