<svg width="11" height="12" viewBox="0 0 11 12" fill="none" xmlns="http://www.w3.org/2000/svg">
<path d="M5.5 0.546875C8.44336 0.546875 10.8281 2.93164 10.8281 5.875C10.8281 8.81836 8.44336 11.2031 5.5 11.2031C2.55664 11.2031 0.171875 8.81836 0.171875 5.875C0.171875 2.93164 2.55664 0.546875 5.5 0.546875ZM5.5 10.1719C7.86328 10.1719 9.79688 8.25977 9.79688 5.875C9.79688 3.51172 7.86328 1.57812 5.5 1.57812C3.11523 1.57812 1.20312 3.51172 1.20312 5.875C1.20312 8.25977 3.11523 10.1719 5.5 10.1719ZM6.81055 7.9375L4.98438 6.60547C4.91992 6.5625 4.89844 6.47656 4.89844 6.41211V2.86719C4.89844 2.73828 5.00586 2.60938 5.15625 2.60938H5.84375C5.97266 2.60938 6.10156 2.73828 6.10156 2.86719V5.91797L7.51953 6.9707C7.64844 7.05664 7.66992 7.20703 7.58398 7.33594L7.17578 7.87305C7.08984 8.00195 6.93945 8.02344 6.81055 7.9375Z" fill="#666666"/>
</svg>
