<svg width="40" height="40" viewBox="0 0 40 40" fill="none" xmlns="http://www.w3.org/2000/svg">
<rect width="40" height="40" rx="20" fill="#DAEDFF"/>
<path d="M27.4688 19C28.6562 19 29.375 20.3125 28.75 21.3125L26.25 25.3125C25.9688 25.75 25.5 26 25 26H12.5C11.6562 26 11 25.3438 11 24.5V15.5C11 14.6875 11.6562 14 12.5 14H17.5L19.5 16H24.5C25.3125 16 26 16.6875 26 17.5V19H27.4688ZM12.5 15.6875V23L14.4375 19.75C14.7188 19.2812 15.2188 19 15.75 19H24.5V17.6875C24.5 17.5938 24.4062 17.5 24.3125 17.5H18.875L16.875 15.5H12.6875C12.5625 15.5 12.5 15.5938 12.5 15.6875ZM25 24.5L27.5 20.5H15.6562L13.25 24.5H25Z" fill="#333333"/>
</svg>
