<svg width="26" height="27" viewBox="0 0 26 27" fill="none" xmlns="http://www.w3.org/2000/svg">
<g clip-path="url(#clip0_2888_9)">
<path d="M9.75008 13.5833C11.8409 13.5833 13.5417 11.8825 13.5417 9.79168C13.5417 7.70084 11.8409 6.00001 9.75008 6.00001C7.65925 6.00001 5.95841 7.70084 5.95841 9.79168C5.95841 11.8825 7.65925 13.5833 9.75008 13.5833ZM9.75008 8.16668C10.6492 8.16668 11.3751 8.89251 11.3751 9.79168C11.3751 10.6908 10.6492 11.4167 9.75008 11.4167C8.85091 11.4167 8.12508 10.6908 8.12508 9.79168C8.12508 8.89251 8.85091 8.16668 9.75008 8.16668ZM9.80425 19H5.16758C6.24008 18.4583 8.09258 17.9167 9.75008 17.9167C9.86925 17.9167 9.99925 17.9275 10.1184 17.9275C10.4867 17.1367 11.1259 16.4867 11.8951 15.9667C11.1042 15.8258 10.3567 15.75 9.75008 15.75C7.21508 15.75 2.16675 17.0175 2.16675 19.5417V21.1667H9.75008V19.5417C9.75008 19.3575 9.77175 19.1733 9.80425 19ZM17.8751 16.2917C15.8817 16.2917 11.9167 17.3858 11.9167 19.5417V21.1667H23.8334V19.5417C23.8334 17.3858 19.8684 16.2917 17.8751 16.2917ZM19.1859 14.32C20.0092 13.8542 20.5834 12.9767 20.5834 11.9583C20.5834 10.4633 19.3701 9.25001 17.8751 9.25001C16.3801 9.25001 15.1667 10.4633 15.1667 11.9583C15.1667 12.9767 15.7409 13.8542 16.5642 14.32C16.9542 14.5367 17.3984 14.6667 17.8751 14.6667C18.3517 14.6667 18.7959 14.5367 19.1859 14.32Z" fill="#666666"/>
</g>
<defs>
<clipPath id="clip0_2888_9">
<rect width="26" height="26" fill="white" transform="translate(0 0.583344)"/>
</clipPath>
</defs>
</svg>
